# xmcd
#
# Track frame offsets: 
#        182
#        17757
#        34332
#        48795
#        60157
#        71757
#        85087
#        98870
#        112287
#        128425
#        156615
#        170952
#        184020
#        200632
#        216232
#        235345
#        250770
#        267382
#        280895
#        296257
#        322707
#
# Disc length: 4795 seconds
#
# Revision: 1
# Processed by: cddbd v1.5.1PL0 Copyright (c) Steve Scherf et al.
# Submitted via: ExactAudioCopy v0.95a2
#
DISCID=3512b915
DTITLE=Various Artist - Die Super Hitparade der Volksmusik 2002 - CD2
DYEAR=2002
DGENRE=Volksmusik
TTITLE0=Schürzenjäger - Tu´s jetzt
TTITLE1=Andre Stade - Lena
TTITLE2=Die Ladiner - Das Luis Trenker- Lied
TTITLE3=Die jungen Original Oberkrainer - Trompetenecho
TTITLE4=Henry Arland - Cielito Lindo
TTITLE5=Paloma - Es fing mit einem Lächeln an
TTITLE6=Axel Becker - Als die Sonne im Meer versank
TTITLE7=Rolf Zuckowski - Leben ist mehr
TTITLE8=Rondo Veneziano - La Piazza
TTITLE9=Frank Schöbel - Wie ein Stern
TTITLE10=Marinechor der Schwarzmeerflotte - Trojka-Glöckchen
TTITLE11=Lolita - Seemann, deine Heimat ist das Meer
TTITLE12=Gaby Albrecht - Kinder können mit dem Herzen seh'n
TTITLE13=Heino - Konvoi nach Bad Münstereifel
TTITLE14=Bianca - Auf den Flügeln der Nacht
TTITLE15=Johannes Kalpers - Musik ist meine Welt
TTITLE16=Patrick Lindner - Spiel den Sirtaki noch mal
TTITLE17=Mühlenhof Musikanten - Wenn jeder Mensch ein Engel wär
TTITLE18=Marianne and Michael - Die Wahrheit, die findest Du dort oben
TTITLE19=Karl Moik and Hias - Lausbuam san ma
TTITLE20=Daten
EXTD=
EXTT0=
EXTT1=
EXTT2=
EXTT3=
EXTT4=
EXTT5=
EXTT6=
EXTT7=
EXTT8=
EXTT9=
EXTT10=
EXTT11=
EXTT12=
EXTT13=
EXTT14=
EXTT15=
EXTT16=
EXTT17=
EXTT18=
EXTT19=
EXTT20=
PLAYORDER=
